<?xml version="1.0" encoding="UTF-8"?>
<svg version="1.1" xmlns="http://www.w3.org/2000/svg" width="1080" height="1080">
<path d="M0 0 C356.4 0 712.8 0 1080 0 C1080 356.4 1080 712.8 1080 1080 C723.6 1080 367.2 1080 0 1080 C0 723.6 0 367.2 0 0 Z " fill="#000000" transform="translate(0,0)"/>
<path d="M0 0 C4.2257023 2.00929136 7.77013407 4.63613823 11.5 7.4375 C12.56250977 8.23450317 12.56250977 8.23450317 13.64648438 9.04760742 C19.10338326 13.19871321 24.18432521 17.61601436 29.15625 22.33203125 C31.34866219 24.38892346 33.56493631 26.36611789 35.83984375 28.328125 C40.09064616 32.02838075 44.09022031 35.94210326 48.0625 39.9375 C48.73087891 40.60201172 49.39925781 41.26652344 50.08789062 41.95117188 C57.05091753 48.92773236 63.39523698 56.29276558 69.375 64.125 C69.93372803 64.85565674 70.49245605 65.58631348 71.06811523 66.33911133 C76.10408487 73.00098593 80.58330975 79.91697108 85 87 C85.68320312 88.01449219 86.36640625 89.02898437 87.0703125 90.07421875 C88.80714889 92.70760024 90.36067508 95.32661843 91.8125 98.125 C92.47185547 99.36636719 92.47185547 99.36636719 93.14453125 100.6328125 C94.14501098 103.40126326 94.10921448 104.3076813 93 107 C86.07217947 119.4270227 75.88037743 133.62714474 65 143 C64.34 143 63.68 143 63 143 C62.78907715 142.48203857 62.5781543 141.96407715 62.36083984 141.43041992 C50.21181532 111.73024086 33.00860603 88.74814854 7.625 68.875 C6.15933594 67.72644531 6.15933594 67.72644531 4.6640625 66.5546875 C2.22168716 64.82738685 2.22168716 64.82738685 -0.03125 65.0078125 C-8.59159053 69.32195237 -16.02956321 77.49425899 -23 84 C-23.81210938 84.75796875 -24.62421875 85.5159375 -25.4609375 86.296875 C-39.69529241 100.0372933 -51.17247859 116.37215615 -58 135 C-58.30679688 135.80050781 -58.61359375 136.60101563 -58.9296875 137.42578125 C-66.03562355 157.01786208 -61.20045062 176.78637067 -52.91748047 195.07421875 C-50.71067316 199.70628264 -47.98374045 203.83876811 -45 208 C-44.4117041 208.85464844 -44.4117041 208.85464844 -43.81152344 209.7265625 C-33.61919863 224.50118345 -21.09754844 237.36096069 -7.1875 248.6875 C-6.63143066 249.1513208 -6.07536133 249.6151416 -5.50244141 250.09301758 C-3.13950328 251.9291188 -1.52866772 252.98265309 1.5 253.08203125 C4.89534031 251.61248552 7.45722586 249.43765731 10.1875 247 C10.75484863 246.5052417 11.32219727 246.0104834 11.90673828 245.50073242 C13.0623307 244.48979199 14.21406041 243.47441853 15.36181641 242.45458984 C16.83964494 241.14238383 18.33114018 239.84560872 19.82421875 238.55078125 C24.49176955 234.45505903 28.71124356 230.25993283 32.625 225.43359375 C33.07875 224.96050781 33.5325 224.48742187 34 224 C34.66 224 35.32 224 36 224 C37.64446741 221.30521881 37.64446741 221.30521881 37.83203125 218.234375 C36.65435784 215.07179663 34.69452258 212.62251717 32.625 210 C32.18091797 209.43112061 31.73683594 208.86224121 31.27929688 208.27612305 C22.01770148 196.57445348 11.53103617 185.60038546 0.19140625 175.91015625 C-2.03959043 173.96549069 -4.2108038 171.96305165 -6.37841797 169.94824219 C-11.70886368 164.99675394 -17.14407625 160.33279207 -23 156 C-21.68864618 152.06593853 -19.8842825 151.15499137 -16.5625 148.6875 C-15.38728429 147.80697177 -14.21285129 146.92539824 -13.0390625 146.04296875 C-12.39743164 145.56263184 -11.75580078 145.08229492 -11.09472656 144.58740234 C-8.80129271 142.84941785 -6.53567503 141.07916911 -4.2734375 139.30078125 C-3.47220459 138.67147705 -2.67097168 138.04217285 -1.84545898 137.39379883 C-0.26006902 136.14692973 1.3237951 134.89811767 2.90600586 133.6472168 C3.63956299 133.07269775 4.37312012 132.49817871 5.12890625 131.90625 C5.77931885 131.39384766 6.42973145 130.88144531 7.09985352 130.35351562 C8.99569004 129.00307008 10.89279289 127.98088574 13 127 C13.69738281 127.71671875 14.39476562 128.4334375 15.11328125 129.171875 C17.98746858 132.04505208 21.06329208 134.65481281 24.1875 137.25 C37.61701409 148.53608426 50.83366652 160.41476304 62 174 C62.58394531 174.69480469 63.16789063 175.38960937 63.76953125 176.10546875 C70.31207214 184.06045227 76.14288857 192.53611644 82 201 C82.65871094 201.95132813 83.31742188 202.90265625 83.99609375 203.8828125 C90.96341133 214.13397802 90.96341133 214.13397802 91.0625 219.1875 C86.76962841 234.59133337 74.17407311 249.01915184 64 261 C62.87851562 262.39798828 62.87851562 262.39798828 61.734375 263.82421875 C55.72468084 271.20404759 49.20944576 278.00155958 42.5 284.75 C41.2011084 286.06266846 41.2011084 286.06266846 39.87597656 287.40185547 C33.89154999 293.35812798 27.60413639 298.74603712 21 304 C19.50863647 305.21526653 18.01891528 306.4325528 16.53125 307.65234375 C15.18763925 308.74756669 13.84389254 309.84262285 12.5 310.9375 C11.81164062 311.50017578 11.12328125 312.06285156 10.4140625 312.64257812 C9.75148438 313.18205078 9.08890625 313.72152344 8.40625 314.27734375 C7.82166016 314.75421631 7.23707031 315.23108887 6.63476562 315.72241211 C2.38502919 319.04362937 2.38502919 319.04362937 0.01782227 318.77539062 C-2.11361852 317.9563397 -3.52264502 317.03736585 -5.28515625 315.59375 C-5.89246582 315.10205322 -6.49977539 314.61035645 -7.12548828 314.10375977 C-7.76470215 313.57451904 -8.40391602 313.04527832 -9.0625 312.5 C-10.06385986 311.68196899 -10.06385986 311.68196899 -11.08544922 310.84741211 C-12.43509396 309.74429039 -13.78277673 308.63876357 -15.12841797 307.53076172 C-16.72832411 306.22220295 -18.34853584 304.93853749 -19.97265625 303.66015625 C-27.02258441 298.08458714 -33.29827266 291.89048872 -39.56445312 285.46826172 C-42.45742029 282.50936639 -45.38939287 279.59241023 -48.359375 276.7109375 C-54.39352899 270.81481971 -59.79178287 264.63108058 -65 258 C-65.79148438 257.01386719 -66.58296875 256.02773438 -67.3984375 255.01171875 C-85.88568982 231.59647645 -105.10196334 200.0960607 -105.1328125 169.39453125 C-105.13410156 168.16412109 -105.13539063 166.93371094 -105.13671875 165.66601562 C-105.13285156 164.39435547 -105.12898437 163.12269531 -105.125 161.8125 C-105.12886719 160.52923828 -105.13273438 159.24597656 -105.13671875 157.92382812 C-105.13542969 156.69728516 -105.13414062 155.47074219 -105.1328125 154.20703125 C-105.13168457 153.0878833 -105.13055664 151.96873535 -105.12939453 150.81567383 C-105 148 -105 148 -104 145 C-103.89683006 143.27190343 -103.81680931 141.5423839 -103.75 139.8125 C-103.13641589 131.77746996 -100.64318243 124.55760245 -98 117 C-97.71382812 116.15050781 -97.42765625 115.30101562 -97.1328125 114.42578125 C-88.72900638 91.49539598 -73.47428353 68.88499867 -57 51 C-56.34 51 -55.68 51 -55 51 C-54.7313916 50.41065674 -54.4627832 49.82131348 -54.18603516 49.21411133 C-52.99411079 46.98900592 -51.74022954 45.41454185 -50.0234375 43.57421875 C-49.43925049 42.94604248 -48.85506348 42.31786621 -48.25317383 41.6706543 C-47.32347778 40.68899292 -47.32347778 40.68899292 -46.375 39.6875 C-45.73908936 39.01178955 -45.10317871 38.3360791 -44.44799805 37.63989258 C-40.77923355 33.77539821 -37.071751 30.0638271 -32.96875 26.65625 C-30.50356142 24.5823612 -28.17024629 22.38264309 -25.8125 20.1875 C-17.72533982 12.80895052 -8.97375446 6.26075893 0 0 Z " fill="#FCFCFC" transform="translate(238,372)"/>
<path d="M0 0 C0.66 0 1.32 0 2 0 C2.39155273 0.73150269 2.39155273 0.73150269 2.79101562 1.4777832 C7.97638163 11.11634336 13.22287588 20.36689999 20 29 C20.64195312 29.83273437 21.28390625 30.66546875 21.9453125 31.5234375 C23.11003055 33.02928635 24.27976099 34.53128772 25.45703125 36.02734375 C25.96621094 36.67832031 26.47539062 37.32929687 27 38 C27.5671875 38.65484375 28.134375 39.3096875 28.71875 39.984375 C30.3013632 42.47409577 30.17809837 43.44324284 29.6875 46.3125 C26.56075435 70.96706919 34.29727189 93.0666834 49.13867188 112.83398438 C51.3422576 115.63193756 53.64068927 118.33266352 56 121 C56.69657715 121.79374023 56.69657715 121.79374023 57.40722656 122.60351562 C60.53220949 126.14098766 63.74107034 129.58565193 67 133 C67.77214844 133.81339844 68.54429687 134.62679687 69.33984375 135.46484375 C74.53031851 140.80127211 80.08591971 145.48527895 86 150 C86.65355469 150.59039063 87.30710937 151.18078125 87.98046875 151.7890625 C89.9420341 153.19662392 89.9420341 153.19662392 92.33984375 153.0234375 C96.0308292 151.60341079 98.66424237 149.23464115 101.5625 146.625 C102.17528809 146.08407715 102.78807617 145.5431543 103.41943359 144.98583984 C104.68059393 143.86875624 105.93776042 142.74714764 107.19091797 141.62109375 C108.83442626 140.14836838 110.49359914 138.69650582 112.16015625 137.25 C129.1234334 122.23113011 141.71758196 104.80864535 150.25 83.82324219 C150.84462277 82.37772042 151.49157536 80.95374163 152.15625 79.5390625 C154.08424615 73.73722225 154.06732252 67.94808171 153.74609375 61.890625 C152.684273 41.30207462 152.684273 41.30207462 158.375 34.8125 C159.7464277 33.34263859 161.14698466 31.91561889 162.58007812 30.50585938 C165.13802248 27.79310133 167.09933008 24.68098637 169.125 21.5625 C169.53459961 20.94342773 169.94419922 20.32435547 170.36621094 19.68652344 C174.54937756 13.30028895 178.313984 6.68219101 182 0 C182.66 0 183.32 0 184 0 C196.4690034 30.2084103 202.79193914 58.69724672 194 91 C193.76925781 91.85158691 193.53851563 92.70317383 193.30078125 93.58056641 C185.19395006 122.42094008 167.46960373 147.79661601 147.25390625 169.5625 C145.34357219 171.62844186 143.5067003 173.72950579 141.6875 175.875 C134.16216015 184.52379106 125.82603409 192.68798346 117 200 C116.18402344 200.68191406 115.36804688 201.36382813 114.52734375 202.06640625 C111.70406377 204.40221342 108.85516455 206.7032938 106 209 C105.43990234 209.45971191 104.87980469 209.91942383 104.30273438 210.39306641 C102.56588566 211.8164516 100.81587672 213.22205079 99.0625 214.625 C98.24712769 215.30042847 98.24712769 215.30042847 97.4152832 215.98950195 C93.53567303 219.05101648 93.53567303 219.05101648 90.62109375 218.7734375 C90.08613281 218.51820313 89.55117187 218.26296875 89 218 C89 217.34 89 216.68 89 216 C87.99453125 215.68675781 87.99453125 215.68675781 86.96875 215.3671875 C82.96290978 213.52239266 79.8794256 210.93008572 76.5 208.125 C75.79875 207.54927246 75.0975 206.97354492 74.375 206.38037109 C68.67890881 201.66071583 63.21896928 196.71950775 57.8359375 191.6484375 C55.47890867 189.44724529 53.08527255 187.33321929 50.625 185.25 C47.43412031 182.48368642 44.69433581 179.50239687 41.96875 176.28125 C40.06491429 174.07521815 38.09282111 171.94602141 36.09863281 169.82177734 C19.70201702 152.28477409 4.99839972 131.34673675 -4 109 C-4.32355469 108.26265625 -4.64710938 107.5253125 -4.98046875 106.765625 C-8.12224045 99.39871204 -10.16876691 91.77868922 -12 84 C-12.22945312 83.030625 -12.45890625 82.06125 -12.6953125 81.0625 C-14.1752156 73.3920163 -14.20392492 65.72912519 -14.25 57.9375 C-14.2593457 56.84912842 -14.26869141 55.76075684 -14.27832031 54.6394043 C-14.20139653 35.02531841 -7.63159453 17.77039878 0 0 Z " fill="#FBFBFB" transform="translate(147,609)"/>
<path d="M0 0 C13.87678224 6.8691457 26.73772223 19.71252792 37.56640625 30.58984375 C39.43425022 32.44853162 41.28739607 34.13058111 43.33203125 35.78125 C46.54468375 38.50442111 49.24827138 41.46028278 51.96484375 44.671875 C53.39728869 46.32339975 54.87766835 47.93379082 56.38671875 49.515625 C79.71617037 73.99464381 100.70458453 107.0922678 104.59765625 141.2734375 C104.80361115 143.9328096 104.80361115 143.9328096 105.95703125 145.96875 C107.44195635 167.71615301 105.29832484 190.42851501 94.95703125 209.96875 C94.29703125 209.96875 93.63703125 209.96875 92.95703125 209.96875 C92.44914063 208.92976562 91.94125 207.89078125 91.41796875 206.8203125 C85.93084041 195.66502886 79.96262112 185.28903567 72.83203125 175.09375 C72.31672852 174.35519775 71.80142578 173.61664551 71.27050781 172.85571289 C68.31535386 168.64488072 68.31535386 168.64488072 64.6484375 165.07421875 C61.83593216 161.5732017 62.22698451 157.51933587 62.01953125 153.15625 C60.43582607 132.10609369 51.00403538 113.67662236 36.95703125 97.96875 C36.26222656 97.16695313 35.56742188 96.36515625 34.8515625 95.5390625 C25.96975686 85.44681609 16.52403132 76.28079834 5.95703125 67.96875 C4.28968889 66.63626172 2.62282382 65.30317523 0.95703125 63.96875 C-3.5077823 66.07330969 -7.16100841 68.94944752 -11.04296875 71.96875 C-11.88988281 72.62746094 -12.73679687 73.28617187 -13.609375 73.96484375 C-29.12775462 86.19915496 -42.47397494 101.65476414 -52.04296875 118.96875 C-52.68685547 120.11537109 -52.68685547 120.11537109 -53.34375 121.28515625 C-57.19379092 128.52037247 -59.65160319 136.15082414 -62.04296875 143.96875 C-62.25566406 144.63261719 -62.46835938 145.29648437 -62.6875 145.98046875 C-63.14095297 148.15961141 -63.14095297 148.15961141 -63.0078125 151.18359375 C-62.93278341 161.39826833 -65.93887374 166.50608418 -72.59619141 174.20410156 C-75.19052212 177.36843204 -77.39385253 180.78075956 -79.60546875 184.21875 C-80.05946045 184.92298096 -80.51345215 185.62721191 -80.98120117 186.3527832 C-85.80435996 193.97315003 -89.96814278 201.92977235 -94.04296875 209.96875 C-98.53409774 207.7231855 -99.50430931 200.5220582 -101.04296875 195.96875 C-101.28015625 195.30004883 -101.51734375 194.63134766 -101.76171875 193.94238281 C-109.92131938 170.20637066 -108.36203015 142.37616178 -100.04296875 118.96875 C-99.68259521 117.91034912 -99.68259521 117.91034912 -99.31494141 116.83056641 C-88.67252669 86.00296311 -67.44019422 60.05195481 -45.04296875 36.96875 C-44.47868164 36.38254883 -43.91439453 35.79634766 -43.33300781 35.19238281 C-37.39235957 29.03346213 -31.26512227 23.31244046 -24.5546875 17.98046875 C-22.33689196 16.20416283 -20.21562873 14.37006941 -18.10546875 12.46875 C-14.75378255 9.52648303 -11.30911217 6.71150133 -7.79296875 3.96875 C-6.7978125 3.185 -5.80265625 2.40125 -4.77734375 1.59375 C-2.04296875 -0.03125 -2.04296875 -0.03125 0 0 Z " fill="#FBFBFB" transform="translate(239.04296875,252.03125)"/>
<path d="M0 0 C15.87696423 -0.74075426 30.52566935 4.01973065 42.57421875 14.53515625 C55.27287277 26.46598468 63.13873075 39.83874975 63.97509766 57.71069336 C64.29008234 77.16624745 57.40433891 92.63782314 44.109375 106.71484375 C34.64005046 115.64187217 22.38539807 121.0827039 9.44921875 122.22265625 C8.77834229 122.28437012 8.10746582 122.34608398 7.41625977 122.40966797 C-6.96743112 123.50781633 -20.18586926 120.39438217 -31.86328125 111.59765625 C-33.11547609 110.49834566 -34.34891923 109.37678076 -35.55078125 108.22265625 C-36.39640625 107.45953125 -37.24203125 106.69640625 -38.11328125 105.91015625 C-39.31984375 104.57984375 -39.31984375 104.57984375 -40.55078125 103.22265625 C-41.16695312 102.54976562 -41.783125 101.876875 -42.41796875 101.18359375 C-48.19640405 94.48933096 -51.4946349 87.43726619 -54.55078125 79.22265625 C-54.92460938 78.33835937 -55.2984375 77.4540625 -55.68359375 76.54296875 C-59.96908972 60.13453823 -56.67048053 43.66321294 -48.875 29.08984375 C-40.59164039 15.11286454 -27.87007674 6.29372498 -12.55078125 1.22265625 C-8.39289342 0.22387537 -4.25289777 0.26668336 0 0 Z " fill="#F9F9F9" transform="translate(883.55078125,598.77734375)"/>
<path d="M0 0 C11.87938568 8.79218971 20.5712521 21.37910269 23.31347656 36.01904297 C25.80911491 54.50340434 23.19634331 71.81764436 12.45019531 87.29443359 C2.78204811 99.67782344 -9.91242006 107.8345402 -25.39355469 111.18896484 C-43.51872832 112.51211655 -58.60392821 110.23538411 -73.38183594 98.89599609 C-84.79055211 88.97057082 -92.80096513 77.25312692 -95.39355469 62.18896484 C-95.67045944 58.20571481 -95.673323 54.24289972 -95.64355469 50.25146484 C-95.65128906 49.21828125 -95.65902344 48.18509766 -95.66699219 47.12060547 C-95.62771463 31.6157882 -90.49504499 18.53483702 -79.63574219 7.36474609 C-78.89582031 6.64673828 -78.15589844 5.92873047 -77.39355469 5.18896484 C-76.75675781 4.54314453 -76.11996094 3.89732422 -75.46386719 3.23193359 C-55.1878396 -16.07656571 -22.25783234 -15.30143708 0 0 Z " fill="#F9F9F9" transform="translate(670.3935546875,609.81103515625)"/>
<path d="M0 0 C3.03859925 2.84577786 5.22951607 5.72902785 7.4375 9.25 C15.05074777 20.85383489 24.16487734 31.35423801 33.66015625 41.44921875 C36 44 36 44 38.07421875 46.625 C39.84519103 48.8090794 41.59628668 50.51922217 43.75 52.3125 C46.57765923 54.72356118 49.22790807 57.20549335 51.8125 59.875 C56.05364498 64.16546062 60.63776187 67.92178912 65.35644531 71.67285156 C67.22512232 73.18178326 69.06132384 74.72625313 70.8984375 76.2734375 C72.24461026 77.39084358 73.59096305 78.50803281 74.9375 79.625 C75.89571655 80.44339355 75.89571655 80.44339355 76.87329102 81.27832031 C78.89574255 82.98599644 78.89574255 82.98599644 82 85 C86.08506321 84.51108832 88.8071924 82.11259 91.9375 79.625 C92.7869519 78.9599646 92.7869519 78.9599646 93.65356445 78.28149414 C99.90626869 73.34960137 105.98285245 68.21512855 112 63 C112.80566406 62.30777344 113.61132812 61.61554687 114.44140625 60.90234375 C126.54475652 50.27351331 138.2271807 38.82682533 148 26 C148.8953099 24.8368365 149.79117528 23.67410042 150.6875 22.51171875 C152.03947758 20.75731306 153.3889765 19.00141481 154.72827148 17.23730469 C156.4016256 15.03689657 158.04247657 12.95752343 160 11 C160.33 12.65 160.66 14.3 161 16 C161.66 16 162.32 16 163 16 C164.30859375 18.015625 164.30859375 18.015625 165 21 C163.7749893 23.87397195 161.92845111 26.25891989 160.0625 28.75 C159.58748047 29.41515625 159.11246094 30.0803125 158.62304688 30.765625 C156.54305759 33.65372761 154.504305 36.46020214 152.07128906 39.06445312 C147.19788558 44.47385689 146.25597425 48.35364096 146.43359375 55.59375 C146.52833984 57.27984375 146.52833984 57.27984375 146.625 59 C147.0568198 71.14667313 146.87051524 80.17621762 141.875 91.375 C141.46757568 92.30183594 141.06015137 93.22867188 140.64038086 94.18359375 C137.63801008 100.87670957 134.36262435 107.08256194 130 113 C129.25105469 114.02996094 128.50210938 115.05992187 127.73046875 116.12109375 C116.31977236 131.519485 101.82993305 148.36841181 85 158 C80.95058214 158.03233068 77.8590301 154.91674974 74.8125 152.5 C74.20881592 152.02151611 73.60513184 151.54303223 72.9831543 151.05004883 C56.81403865 137.90223736 42.41103372 122.1061456 32 104 C31.40445313 102.96875 30.80890625 101.9375 30.1953125 100.875 C21.75490731 85.22583674 17.6529926 68.35530957 21 50.6875 C21.37822884 47.50932714 21.18403435 46.31080269 19.53125 43.51953125 C17.44006759 40.92566076 15.23261203 38.47251142 13 36 C7.94958323 29.26255183 3.4482002 22.1434151 -1 15 C-1.46148437 14.30390625 -1.92296875 13.6078125 -2.3984375 12.890625 C-3.5625 11.0625 -3.5625 11.0625 -5 8 C-4.375 5.625 -4.375 5.625 -3 4 C-2.34 3.67 -1.68 3.34 -1 3 C-0.67 2.01 -0.34 1.02 0 0 Z " fill="#030303" transform="translate(155,605)"/>
<path d="M0 0 C7.26 0 14.52 0 22 0 C27.48579582 5.69411718 27.48579582 5.69411718 28.8046875 8.69140625 C31.47602962 14.198582 35.06418834 19.05729493 38.5625 24.0625 C39.87412192 25.98100615 41.18279854 27.9015298 42.48828125 29.82421875 C43.10010254 30.72446777 43.71192383 31.6247168 44.34228516 32.55224609 C46.93404471 36.37919473 49.49071471 40.22862809 52.04296875 44.08203125 C54.94265102 48.4055096 57.9063471 52.68492151 60.88183594 56.95654297 C64.75552271 62.55042398 68.33648109 68.24304172 72 74 C72.33 49.58 72.66 25.16 73 0 C80.59 0 88.18 0 96 0 C96 38.94 96 77.88 96 118 C74 118 74 118 67.5390625 111.640625 C66.00976562 109.47583008 66.00976562 109.47583008 64.9921875 107.56640625 C64.6012793 106.85629395 64.21037109 106.14618164 63.80761719 105.41455078 C63.41735352 104.70024902 63.02708984 103.98594727 62.625 103.25 C61.78865875 101.8536088 60.94492361 100.46161868 60.09375 99.07421875 C58.43969245 96.35662198 56.82795514 93.62063386 55.2487793 90.85888672 C52.1021428 85.39303162 48.56507058 80.1992178 45 75 C44.14438477 73.73929688 44.14438477 73.73929688 43.27148438 72.453125 C41.66606713 70.08964683 40.0530801 67.73153993 38.4375 65.375 C37.88102783 64.5610376 37.32455566 63.7470752 36.7512207 62.90844727 C33.25282171 57.79893675 29.71184197 52.72648445 26.07421875 47.71484375 C25 46 25 46 25 44 C24.34 44 23.68 44 23 44 C23 68.42 23 92.84 23 118 C15.41 118 7.82 118 0 118 C0 79.06 0 40.12 0 0 Z " fill="#F9F9F9" transform="translate(450,601)"/>
<path d="M0 0 C23.76 0 47.52 0 72 0 C72 7.26 72 14.52 72 22 C56.16 22 40.32 22 24 22 C24 30.58 24 39.16 24 48 C36.87 48 49.74 48 63 48 C63 55.26 63 62.52 63 70 C49.8 70 36.6 70 23 70 C23 79.24 23 88.48 23 98 C39.83 98 56.66 98 74 98 C74 104.93 74 111.86 74 119 C49.58 119 25.16 119 0 119 C0 79.73 0 40.46 0 0 Z " fill="#F6F6F6" transform="translate(758,458)"/>
<path d="M0 0 C1.25908676 0.00222061 2.51817352 0.00444122 3.81541443 0.00672913 C4.50806396 0.0065831 5.2007135 0.00643707 5.91435242 0.00628662 C8.21400537 0.00698577 10.51357828 0.01477823 12.81321716 0.02259827 C14.40362504 0.02446244 15.99403349 0.02588635 17.58444214 0.02688599 C21.77827021 0.03071123 25.97206386 0.04054156 30.1658783 0.05158997 C34.44220006 0.06180395 38.71852736 0.06638358 42.99485779 0.07142639 C51.39135975 0.08216383 59.78782709 0.09976068 68.18431091 0.12025452 C68.18431091 7.38025452 68.18431091 14.64025452 68.18431091 22.12025452 C52.34431091 22.12025452 36.50431091 22.12025452 20.18431091 22.12025452 C20.18431091 30.70025452 20.18431091 39.28025452 20.18431091 48.12025452 C22.91583435 48.10865295 25.64735779 48.09705139 28.46165466 48.08509827 C31.0960122 48.07730809 33.73036848 48.07123111 36.36473083 48.06532288 C38.20099966 48.0602822 40.03726445 48.05344975 41.8735199 48.04481506 C44.50707493 48.03273779 47.14057708 48.02702371 49.77415466 48.02259827 C50.60019699 48.01743698 51.42623932 48.0122757 52.27731323 48.00695801 C54.24667459 48.00676247 56.21592705 48.058213 58.18431091 48.12025452 C59.18431091 49.12025452 59.18431091 49.12025452 59.2978363 51.16151428 C59.29259949 52.03606262 59.28736267 52.91061096 59.28196716 53.81166077 C59.2794696 54.66187805 59.27697205 55.51209534 59.2743988 56.38807678 C59.2652948 57.47532043 59.2561908 58.56256409 59.24681091 59.68275452 C59.22618591 63.12712952 59.20556091 66.57150452 59.18431091 70.12025452 C45.98431091 70.12025452 32.78431091 70.12025452 19.18431091 70.12025452 C19.18431091 79.36025452 19.18431091 88.60025452 19.18431091 98.12025452 C36.01431091 98.12025452 52.84431091 98.12025452 70.18431091 98.12025452 C70.18431091 105.05025452 70.18431091 111.98025452 70.18431091 119.12025452 C45.76431091 119.12025452 21.34431091 119.12025452 -3.81568909 119.12025452 C-3.85585276 89.67136032 -3.85585276 89.67136032 -3.86594296 75.17550945 C-3.87149473 67.32057787 -3.87855436 59.46565685 -3.89112854 51.61073303 C-3.90213584 44.73135714 -3.90796526 37.8519927 -3.91056633 30.97260857 C-3.91242114 28.34143837 -3.91604282 25.71026883 -3.92141914 23.07910347 C-3.92862544 19.40799202 -3.9296802 15.73692848 -3.92921448 12.06581116 C-3.93280975 10.96601929 -3.93640503 9.86622742 -3.94010925 8.73310852 C-3.93804726 7.24174126 -3.93804726 7.24174126 -3.9359436 5.72024536 C-3.9368654 4.85099458 -3.93778719 3.98174379 -3.93873692 3.08615208 C-3.74106996 -0.07191251 -3.2032073 0.13680493 0 0 Z " fill="#F6F6F6" transform="translate(658.8156890869141,457.87974548339844)"/>
<path d="M0 0 C2.15187587 1.79249945 2.98058067 2.96934026 3.91796875 5.59765625 C3.31884766 7.61230469 3.31884766 7.61230469 2.14453125 9.70703125 C1.73203125 10.46113281 1.31953125 11.21523438 0.89453125 11.9921875 C0.22550781 13.15814453 0.22550781 13.15814453 -0.45703125 14.34765625 C-1.11445312 15.53681641 -1.11445312 15.53681641 -1.78515625 16.75 C-2.87010689 18.70762833 -3.96921749 20.65577406 -5.08203125 22.59765625 C-9.08203125 22.59765625 -9.08203125 22.59765625 -11.14453125 20.91015625 C-18.51216297 15.11010574 -25.8209065 12.78990299 -35.18359375 13.16796875 C-39.24833515 13.77055844 -41.10997734 14.78625391 -44.08203125 17.59765625 C-46.59453708 21.366415 -46.61219211 23.12915759 -46.08203125 27.59765625 C-42.8000422 32.24413526 -40.00130236 34.55042615 -34.76953125 36.97265625 C-33.52986305 37.5636241 -32.29028331 38.15477751 -31.05078125 38.74609375 C-29.72788052 39.3633154 -28.40496342 39.98050197 -27.08203125 40.59765625 C-2.8969691 52.03869936 -2.8969691 52.03869936 3.91796875 64.59765625 C6.78578269 73.20109808 6.30113693 85.03937736 2.54296875 93.22265625 C-2.20236339 101.22128939 -9.14261715 107.78339626 -18.08203125 110.59765625 C-19.81453125 111.18546875 -19.81453125 111.18546875 -21.58203125 111.78515625 C-36.15758227 115.07731739 -50.84448897 111.69045846 -63.59375 104.32421875 C-67.58496338 101.55480538 -70.86979275 98.22408023 -74.08203125 94.59765625 C-72.48533127 91.07992661 -70.37649117 88.13520779 -68.08203125 85.03515625 C-66.02569898 82.24927963 -64.00296875 79.47906249 -62.08203125 76.59765625 C-59.1958382 77.93562654 -56.863162 79.47498021 -54.39453125 81.47265625 C-45.44662153 88.15900637 -37.22245991 89.99651098 -26.08203125 88.59765625 C-23.17732728 87.28572504 -21.573163 86.3336029 -19.8046875 83.68359375 C-19.03269947 81.45526074 -18.6476504 79.57839551 -18.51953125 77.22265625 C-18.45636719 76.49304688 -18.39320313 75.7634375 -18.328125 75.01171875 C-19.84049627 70.16899625 -24.21757607 67.5839917 -28.54272461 65.29589844 C-31.28441289 64.02727689 -34.04864735 62.83432602 -36.83203125 61.66015625 C-48.20963686 56.65569605 -58.64547038 52.00479986 -66.08203125 41.59765625 C-66.51515625 41.00597656 -66.94828125 40.41429687 -67.39453125 39.8046875 C-71.90879512 32.45333419 -70.82164079 22.92452815 -69.45703125 14.72265625 C-66.98340903 5.49348644 -58.69688585 -1.80074332 -50.9140625 -6.79296875 C-35.14930625 -14.49897697 -13.79787377 -8.90568444 0 0 Z " fill="#F9F9F9" transform="translate(515.08203125,466.40234375)"/>
<path d="M0 0 C7.92 0 15.84 0 24 0 C26.3201369 5.41365278 28.4698427 10.79384097 30.5 16.3125 C30.79519531 17.10333984 31.09039063 17.89417969 31.39453125 18.70898438 C33.18837245 23.57290181 34.76159351 28.46169318 36.22265625 33.43481445 C37.60018816 37.98058324 39.17893507 42.45567253 40.75 46.9375 C41.09490479 47.92443848 41.43980957 48.91137695 41.79516602 49.92822266 C44.13333787 56.59268049 46.51072744 63.24229049 48.9375 69.875 C49.23172852 70.68316162 49.52595703 71.49132324 49.82910156 72.32397461 C50.94587201 75.93507762 50.94587201 75.93507762 53 79 C57.59651595 67.03601878 61.74223273 54.96068095 65.72583008 42.78076172 C67.47479742 37.47580983 69.35948171 32.23289634 71.3125 27 C74.63948813 18.03295783 77.83697286 9.0261994 81 0 C89.25 0 97.5 0 106 0 C104.07536932 5.77389203 102.12390295 11.51238641 100.0390625 17.2265625 C99.47912662 18.76951672 98.91923212 20.31248595 98.359375 21.85546875 C97.49582191 24.23121442 96.63165286 26.60673302 95.76660156 28.98193359 C92.42132572 38.17282031 89.15723251 47.37224098 86.15380859 56.68115234 C84.92965007 60.20235653 83.4860832 63.58218379 82 67 C81.4891712 68.37426106 80.99488255 69.75494606 80.52734375 71.14453125 C80.27227051 71.8914624 80.01719727 72.63839355 79.75439453 73.40795898 C79.35003174 74.59820679 79.35003174 74.59820679 78.9375 75.8125 C75.63694059 85.4163765 72.01071055 94.88146552 68.28881836 104.3293457 C67.87639893 105.38468506 67.46397949 106.44002441 67.0390625 107.52734375 C66.66990723 108.46312256 66.30075195 109.39890137 65.92041016 110.36303711 C64.81123253 113.34590804 64.81123253 113.34590804 64 118 C56.74 118 49.48 118 42 118 C40.96875 115.174375 39.9375 112.34875 38.875 109.4375 C36.60064741 103.22713807 34.25281811 97.05932269 31.75 90.9375 C29.78076152 86.08733856 28.12090246 81.28145965 26.70703125 76.24609375 C25.98539532 73.95360392 25.08132772 71.86283486 24.0625 69.6875 C21.9271264 65.09198115 20.51703294 60.36980712 19.125 55.50390625 C17.9569244 51.86583744 16.57112761 48.3771223 15.1328125 44.83959961 C12.51522688 38.27814737 10.14505991 31.61942078 7.7109375 24.98828125 C7.29070313 23.84746094 6.87046875 22.70664062 6.4375 21.53125 C5.82648437 19.87029297 5.82648437 19.87029297 5.203125 18.17578125 C3.80064962 14.47379266 2.28077419 10.82999769 0.69921875 7.20117188 C0 5 0 5 0 0 Z " fill="#F9F9F9" transform="translate(708,601)"/>
<path d="M0 0 C8.4862144 4.94153016 14.98174442 12.82761667 18.34765625 22.05859375 C21.09996794 34.46871772 19.0194187 46.40031328 12.7578125 57.3203125 C7.41392133 65.46677771 0.38503868 70.6098215 -8.8828125 73.609375 C-19.39902639 75.54963587 -28.30474745 73.96632948 -37.3671875 68.59765625 C-43.99385381 64.03485066 -47.52162484 58.14528015 -51 51 C-51.36222656 50.27039063 -51.72445312 49.54078125 -52.09765625 48.7890625 C-55.65208233 40.15924662 -55.28358134 28.7379138 -52.375 20 C-48.30919225 10.48458326 -41.24261894 2.73980458 -32 -2 C-21.56556038 -6.07124089 -9.88363006 -5.10892955 0 0 Z " fill="#030303" transform="translate(652,625)"/>
<path d="M0 0 C8.48632994 6.88126955 13.9132528 14.96964593 15.19921875 26.0625 C15.81290626 39.23366857 12.59392886 51.20183442 3.75 61.1875 C-3.2997263 68.10280355 -12.07473333 71.36198234 -21.875 71.625 C-33.45874688 71.20003414 -41.11040779 66.74675137 -49 58.4375 C-52.63064849 54.10387857 -54.54182908 49.53519088 -56.25 44.1875 C-56.58837891 43.18396484 -56.58837891 43.18396484 -56.93359375 42.16015625 C-59.94689155 31.99806918 -58.54102491 22.01560777 -53.99609375 12.5859375 C-49.23024056 3.98922139 -42.547849 -2.36060396 -33.25 -5.8125 C-21.18881482 -8.83794881 -10.09484608 -7.10448601 0 0 Z " fill="#020202" transform="translate(908.25,627.8125)"/>
<path d="M0 0 C32.34 0 64.68 0 98 0 C98 7.26 98 14.52 98 22 C85.79 22 73.58 22 61 22 C61 54.01 61 86.02 61 119 C53.08 119 45.16 119 37 119 C37 86.99 37 54.98 37 22 C24.79 22 12.58 22 0 22 C0 14.74 0 7.48 0 0 Z " fill="#F5F5F5" transform="translate(535,458)"/>
<path d="M0 0 C7.59 0 15.18 0 23 0 C23 32.34 23 64.68 23 98 C39.17 98 55.34 98 72 98 C72 104.93 72 111.86 72 119 C48.24 119 24.48 119 0 119 C0 79.73 0 40.46 0 0 Z " fill="#FAFAFA" transform="translate(861,458)"/>
<path d="M0 0 C29 0 29 0 39 4 C44.83531809 9.95440621 45.34783294 13.61440762 45.28515625 21.7265625 C44.88766342 26.2895624 43.77103618 28.38225832 41 32 C40.4225 32.763125 39.845 33.52625 39.25 34.3125 C36.01029057 36.74228207 32.95811471 37.20837706 29 38 C33.66404297 47.91109132 39.56937002 57.15161248 45.87109375 66.09765625 C47.04512493 68.07604097 47.49145215 69.77239275 48 72 C44.36808792 72.97669243 41.60773889 73.15359343 38 72 C34.16272144 67.70661284 31.65782333 62.76611682 29 57.6875 C28.24701003 56.31381958 27.49053068 54.94204577 26.73046875 53.57226562 C25.34111143 51.0602525 23.9743063 48.53848919 22.62890625 46.00268555 C21.0292708 42.94551409 21.0292708 42.94551409 19 40 C15.37 39.67 11.74 39.34 8 39 C8 49.89 8 60.78 8 72 C5.36 72 2.72 72 0 72 C0 48.24 0 24.48 0 0 Z " fill="#F0F0F0" transform="translate(687,364)"/>
<path d="M0 0 C3.3 0 6.6 0 10 0 C12.96372913 3.01665287 14.79950348 5.46799284 17 9 C17.78569568 10.17501042 18.57636638 11.3467043 19.37109375 12.515625 C21.5465313 15.72477219 23.68554132 18.95630772 25.81396484 22.19677734 C27.44768003 24.68064321 29.09844349 27.15297003 30.75 29.625 C36.83333333 38.75 42.91666667 47.875 49 57 C49.33 38.19 49.66 19.38 50 0 C52.97 0 55.94 0 59 0 C59 23.76 59 47.52 59 72 C48 72 48 72 44.79296875 68.80078125 C43.88532369 67.32811323 43.01893985 65.82949652 42.1875 64.3125 C41.18130506 62.64876024 40.1734235 60.98603962 39.1640625 59.32421875 C38.65004883 58.44942871 38.13603516 57.57463867 37.60644531 56.67333984 C34.92578208 52.21235772 31.98183638 47.93192975 29.0625 43.625 C22.25821249 33.4918885 15.65283311 23.23512786 9 13 C8.67 32.8 8.34 52.6 8 73 C5.36 73 2.72 73 0 73 C0 48.91 0 24.82 0 0 Z " fill="#E4E4E4" transform="translate(790,364)"/>
<path d="M0 0 C-1.39332574 3.36720387 -2.9789286 4.9859524 -6 7 C-6.639375 6.401875 -7.27875 5.80375 -7.9375 5.1875 C-16.34928555 -0.82091825 -25.79404117 -1.03432647 -35.75 0.625 C-43.66239863 3.97255326 -48.34688722 8.49422342 -51.921875 16.390625 C-54.71855648 25.7534282 -54.55689075 35.82280279 -50.4375 44.75 C-46.69124736 51.1292321 -42.18958514 55.83434477 -35 58 C-31.82907713 58.2838752 -28.68164784 58.27923413 -25.5 58.25 C-24.65824219 58.25773437 -23.81648438 58.26546875 -22.94921875 58.2734375 C-18.45985017 58.25929776 -15.12455531 57.9391566 -11 56 C-10.01 56 -9.02 56 -8 56 C-8 49.07 -8 42.14 -8 35 C-13.28 35 -18.56 35 -24 35 C-24 32.36 -24 29.72 -24 27 C-15.75 27 -7.5 27 1 27 C1 38.22 1 49.44 1 61 C-13.57492767 66.20533131 -28.15466461 70.55761995 -43 64 C-46.3125 62.0625 -46.3125 62.0625 -49 60 C-49.845625 59.401875 -50.69125 58.80375 -51.5625 58.1875 C-59.75310943 50.83695308 -62.98398235 41.23895504 -63.62768555 30.44213867 C-63.93672478 18.47033719 -60.37449483 9.39150453 -52.1875 0.4375 C-37.06172229 -13.24912604 -15.73355821 -11.80016866 0 0 Z " fill="#ECECEC" transform="translate(512,371)"/>
<path d="M0 0 C2.97 0 5.94 0 9 0 C9.00142502 0.62925385 9.00285004 1.25850769 9.00431824 1.90682983 C9.02410254 8.494149 9.0785627 15.08055238 9.15258789 21.66748047 C9.17569341 24.12118953 9.19014599 26.57499672 9.19555664 29.02880859 C9.20490021 32.56930167 9.2460127 36.10826697 9.29296875 39.6484375 C9.2890361 40.73426117 9.28510345 41.82008484 9.28105164 42.93881226 C9.41970979 50.28232709 10.90506653 55.83776763 15 62 C19.63859995 66.09019405 24.76368659 65.4920157 30.67578125 65.34375 C34.89309742 64.9076468 37.02990146 64.04825902 40 61 C41.5605034 58.71770024 42.75532649 56.48934703 44 54 C44.495 53.01 44.495 53.01 45 52 C45.11887956 50.33600717 45.17711944 48.66750725 45.20532227 46.99951172 C45.22526749 45.95858368 45.24521271 44.91765564 45.26576233 43.84518433 C45.29083107 42.1545134 45.29083107 42.1545134 45.31640625 40.4296875 C45.33718735 39.27832306 45.35796844 38.12695862 45.37937927 36.94070435 C45.44491665 33.2521986 45.50377928 29.56361997 45.5625 25.875 C45.60568123 23.37889862 45.64929538 20.8828047 45.69335938 18.38671875 C45.80060231 12.25789019 45.90236089 6.12898867 46 0 C48.64 0 51.28 0 54 0 C54.10181551 7.52551659 54.17163986 15.05085407 54.21972656 22.5769043 C54.23978303 25.13458901 54.26703505 27.69222821 54.30175781 30.24975586 C54.35053672 33.93614975 54.37302945 37.62193484 54.390625 41.30859375 C54.41127014 42.44332626 54.43191528 43.57805878 54.45318604 44.74717712 C54.45578432 54.03902399 52.243689 61.57865932 45.8125 68.4921875 C39.71834329 73.56189545 32.61309157 74.62332479 24.890625 74.31640625 C17.19917603 73.4745044 11.13162825 70.92008155 6 65 C0.36780344 56.49890331 -0.2946165 47.41373606 -0.1953125 37.5 C-0.1924826 36.42371338 -0.18965271 35.34742676 -0.18673706 34.23852539 C-0.17560731 30.82556701 -0.15051595 27.4128781 -0.125 24 C-0.11496089 21.67578506 -0.10583667 19.35156598 -0.09765625 17.02734375 C-0.07569155 11.35145982 -0.04121151 5.67577549 0 0 Z " fill="#F0F0F0" transform="translate(538,364)"/>
<path d="M0 0 C14.52 0 29.04 0 44 0 C44 2.64 44 5.28 44 8 C32.12 8 20.24 8 8 8 C8 15.59 8 23.18 8 31 C19.22 31 30.44 31 42 31 C42 33.31 42 35.62 42 38 C30.78 38 19.56 38 8 38 C8 46.91 8 55.82 8 65 C20.21 65 32.42 65 45 65 C45 67.31 45 69.62 45 72 C30.15 72 15.3 72 0 72 C0 48.24 0 24.48 0 0 Z " fill="#F4F4F4" transform="translate(619,364)"/>
<path d="M0 0 C2.97 0 5.94 0 9 0 C9.02312504 9.37035938 9.04091591 18.74070901 9.05181217 28.11109066 C9.05704065 32.46168459 9.06413765 36.81225907 9.07543945 41.1628418 C9.08626959 45.35790258 9.0922771 49.55294459 9.09487724 53.74801826 C9.09673126 55.35206968 9.10035144 56.95612003 9.10573006 58.5601635 C9.11294219 60.79916515 9.11399087 63.0380883 9.11352539 65.27709961 C9.115746 66.55395126 9.11796661 67.83080292 9.12025452 69.14634705 C9 72 9 72 8 73 C5.36 73 2.72 73 0 73 C0 48.91 0 24.82 0 0 Z " fill="#E1E1E1" transform="translate(875,364)"/>
<path d="M0 0 C2.97 0 5.94 0 9 0 C9.02312504 9.37035938 9.04091591 18.74070901 9.05181217 28.11109066 C9.05704065 32.46168459 9.06413765 36.81225907 9.07543945 41.1628418 C9.08626959 45.35790258 9.0922771 49.55294459 9.09487724 53.74801826 C9.09673126 55.35206968 9.10035144 56.95612003 9.10573006 58.5601635 C9.11294219 60.79916515 9.11399087 63.0380883 9.11352539 65.27709961 C9.115746 66.55395126 9.11796661 67.83080292 9.12025452 69.14634705 C9 72 9 72 8 73 C5.36 73 2.72 73 0 73 C0 48.91 0 24.82 0 0 Z " fill="#E1E1E1" transform="translate(755,364)"/>
<path d="M0 0 C2.825625 -0.04125 5.65125 -0.0825 8.5625 -0.125 C9.43849854 -0.14320801 10.31449707 -0.16141602 11.21704102 -0.18017578 C17.23718205 -0.22232697 22.66220691 0.02186738 27.4375 4.0625 C29.60039179 8.12873656 29.7875903 11.48776389 29 16 C26.8871271 20.04967306 24.10395124 22.03261793 19.76953125 23.5078125 C13.27224434 24.66247844 6.55973473 24.15374378 0 24 C0 16.08 0 8.16 0 0 Z " fill="#060606" transform="translate(695,372)"/>
<path d="M0 0 C2.31 0 4.62 0 7 0 C7 23.43 7 46.86 7 71 C3.7 71 0.4 71 -3 71 C-6.3660173 67.47369617 -7 65.88877921 -7 61 C-4.49515403 58.58152803 -3.53986194 58 0 58 C0 38.86 0 19.72 0 0 Z " fill="#FCFCFC" transform="translate(841,365)"/>
<path d="M0 0 C2.97 0 5.94 0 9 0 C9.20034088 7.36240921 9.3840432 14.72503602 9.54658794 22.08838272 C9.62258788 25.50759362 9.70428585 28.92646906 9.79907227 32.34521484 C9.90782325 36.27669057 9.99167215 40.20850822 10.07421875 44.140625 C10.11157639 45.36678528 10.14893402 46.59294556 10.18742371 47.85626221 C10.20767105 48.99714294 10.2279184 50.13802368 10.2487793 51.31347656 C10.27320602 52.31719299 10.29763275 53.32090942 10.32279968 54.3550415 C9.95048338 57.40572968 9.03444127 58.74608541 7 61 C5.68 60.67 4.36 60.34 3 60 C0.4877134 52.25388683 -0.4168295 45.32669751 -0.29296875 37.20703125 C-0.28872391 36.13498947 -0.28447906 35.06294769 -0.28010559 33.9584198 C-0.26347989 30.57617739 -0.22585846 27.19455851 -0.1875 23.8125 C-0.17243233 21.50196181 -0.1587476 19.19141416 -0.14648438 16.88085938 C-0.11362928 11.25367057 -0.06196021 5.62694053 0 0 Z " fill="#E7E7E7" transform="translate(538,364)"/>
<path d="M0 0 C2 3 2 3 3 5 C3.98020375 6.0194119 4.97803008 7.02246356 6 8 C4.51364884 12.21654356 2.38750841 15.62478605 -0.125 19.3125 C-0.84945313 20.38113281 -1.57390625 21.44976563 -2.3203125 22.55078125 C-3.15175781 23.76314453 -3.15175781 23.76314453 -4 25 C-5.32 23.68 -6.64 22.36 -8 21 C-9.32 21.99 -10.64 22.98 -12 24 C-12.66 23.34 -13.32 22.68 -14 22 C-14.99 22 -15.98 22 -17 22 C-16.35933594 21.24976563 -15.71867187 20.49953125 -15.05859375 19.7265625 C-9.6762747 13.37455017 -4.6317132 6.932233 0 0 Z " fill="#090909" transform="translate(314,616)"/>
<path d="M0 0 C0.99 0.33 1.98 0.66 3 1 C2.01 1.495 2.01 1.495 1 2 C1.33 2.99 1.66 3.98 2 5 C0.6078125 5.4021875 0.6078125 5.4021875 -0.8125 5.8125 C-4.50505047 7.18050831 -4.50505047 7.18050831 -7 10 C-7.36442233 11.66014616 -7.69972883 13.32706064 -8 15 C-8.66 15.66 -9.32 16.32 -10 17 C-10 16.34 -10 15.68 -10 15 C-10.66 15 -11.32 15 -12 15 C-12.33 15.66 -12.66 16.32 -13 17 C-14.92713818 18.76164986 -16.96823666 20.35729773 -19 22 C-19.66 21.67 -20.32 21.34 -21 21 C-14.07 14.07 -7.14 7.14 0 0 Z " fill="#DFDFDF" transform="translate(206,277)"/>
<path d="M0 0 C0.33 1.32 0.66 2.64 1 4 C0.5153125 4.4125 0.030625 4.825 -0.46875 5.25 C-10.41571856 13.60842041 -10.41571856 13.60842041 -18 24 C-19.6875 25.8125 -19.6875 25.8125 -21 27 C-21.33 26.34 -21.66 25.68 -22 25 C-22.66 24.67 -23.32 24.34 -24 24 C-23.24976563 23.32195313 -22.49953125 22.64390625 -21.7265625 21.9453125 C-9.93353031 11.78881449 -9.93353031 11.78881449 0 0 Z " fill="#212121" transform="translate(292,780)"/>
<path d="M0 0 C0.12375 0.61875 0.2475 1.2375 0.375 1.875 C0.87197356 4.19120832 0.87197356 4.19120832 3 6 C2.6442194 9.37991574 1.64284201 12.04288438 0 15 C-1.65 15 -3.3 15 -5 15 C-1.92482916 4.44191344 -1.92482916 4.44191344 0 0 Z " fill="#181818" transform="translate(811,608)"/>
<path d="M0 0 C2.84416691 1.07617126 4.33247654 2.60163973 6.3125 4.875 C5.6525 4.875 4.9925 4.875 4.3125 4.875 C4.3125 5.535 4.3125 6.195 4.3125 6.875 C1.80892139 6.0404738 -0.35535852 5.08128008 -2.6875 3.875 C-3.15800781 4.24753906 -3.62851563 4.62007813 -4.11328125 5.00390625 C-4.73589844 5.47699219 -5.35851562 5.95007813 -6 6.4375 C-6.61488281 6.91316406 -7.22976562 7.38882812 -7.86328125 7.87890625 C-8.46527344 8.20761719 -9.06726563 8.53632813 -9.6875 8.875 C-10.6775 8.545 -11.6675 8.215 -12.6875 7.875 C-11.14096042 6.50263381 -9.57457224 5.15261039 -8 3.8125 C-7.12988281 3.05839844 -6.25976562 2.30429687 -5.36328125 1.52734375 C-2.6875 -0.125 -2.6875 -0.125 0 0 Z " fill="#212121" transform="translate(239.6875,436.125)"/>
<path d="M0 0 C-0.69941596 3.14737182 -1.76078698 6.02588876 -3 9 C-3.66 9 -4.32 9 -5 9 C-5.99 6.03 -6.98 3.06 -8 0 C-4.29847322 -0.92538169 -3.36541838 -1.08174162 0 0 Z " fill="#E9E9E9" transform="translate(337,453)"/>
<path d="M0 0 C0.33 0.66 0.66 1.32 1 2 C0.0625 4.125 0.0625 4.125 -1 6 C-0.34 6 0.32 6 1 6 C0.67 6.66 0.34 7.32 0 8 C-0.70125 8.061875 -1.4025 8.12375 -2.125 8.1875 C-6.54041573 9.43533488 -8.97986924 12.66654155 -12 16 C-12.66 15.67 -13.32 15.34 -14 15 C-13.36191406 14.37351562 -12.72382813 13.74703125 -12.06640625 13.1015625 C-11.24011719 12.28429687 -10.41382813 11.46703125 -9.5625 10.625 C-8.73878906 9.81289063 -7.91507812 9.00078125 -7.06640625 8.1640625 C-4.96565328 6.17651485 -4.96565328 6.17651485 -4 4 C-3.34 4 -2.68 4 -2 4 C-1.34 2.68 -0.68 1.36 0 0 Z " fill="#DADADA" transform="translate(276,592)"/>
<path d="M0 0 C0.66 0.33 1.32 0.66 2 1 C-0.89217759 6.54334038 -0.89217759 6.54334038 -4.046875 7.84375 C-6.01200737 8.31761171 -8.00604667 8.66767445 -10 9 C-6.83047153 5.73991357 -3.60062011 2.77762123 0 0 Z " fill="#E0E0E0" transform="translate(855,607)"/>
<path d="M0 0 C2.475 0.99 2.475 0.99 5 2 C3.60667426 5.36720387 2.0210714 6.9859524 -1 9 C-2.0326802 6.21176345 -2.04509293 5.1322726 -1.0625 2.25 C-0.711875 1.5075 -0.36125 0.765 0 0 Z " fill="#E8E8E8" transform="translate(507,369)"/>
<path d="M0 0 C0.99 1.32 1.98 2.64 3 4 C2.67 4.66 2.34 5.32 2 6 C1.34 5.67 0.68 5.34 0 5 C-0.12375 5.598125 -0.2475 6.19625 -0.375 6.8125 C-1 9 -1 9 -3 12 C-3.66 10.02 -4.32 8.04 -5 6 C-3.68 5.67 -2.36 5.34 -1 5 C-0.67 3.35 -0.34 1.7 0 0 Z " fill="#1A1A1A" transform="translate(326,449)"/>
<path d="M0 0 C0.99 0.33 1.98 0.66 3 1 C2.01 1.495 2.01 1.495 1 2 C1.33 2.99 1.66 3.98 2 5 C1.0925 5.2475 0.185 5.495 -0.75 5.75 C-4.10351489 7.03981342 -5.67708236 8.31971042 -8 11 C-8.66 10.67 -9.32 10.34 -10 10 C-6.7 6.7 -3.4 3.4 0 0 Z " fill="#D8D8D8" transform="translate(206,277)"/>
<path d="M0 0 C0.66 0.66 1.32 1.32 2 2 C1.01 2.495 1.01 2.495 0 3 C-0.65213292 5.02463255 -0.65213292 5.02463255 -1 7 C-1.99 6.34 -2.98 5.68 -4 5 C-6.73872955 4.54227937 -6.73872955 4.54227937 -9.6875 4.375 C-11.17830078 4.26285156 -11.17830078 4.26285156 -12.69921875 4.1484375 C-13.45847656 4.09945312 -14.21773438 4.05046875 -15 4 C-15 3.67 -15 3.34 -15 3 C-14.25234375 2.95101562 -13.5046875 2.90203125 -12.734375 2.8515625 C-11.74953125 2.77679687 -10.7646875 2.70203125 -9.75 2.625 C-8.28820312 2.52058594 -8.28820312 2.52058594 -6.796875 2.4140625 C-4.10366811 2.01534751 -2.33036721 1.36492937 0 0 Z " fill="#C5C5C5" transform="translate(493,553)"/>
<path d="M0 0 C0 3 0 3 -2.375 5.5 C-3.674375 6.7375 -3.674375 6.7375 -5 8 C-5.99 9.485 -5.99 9.485 -7 11 C-9.625 11.6875 -9.625 11.6875 -12 12 C-8.32167983 7.47384007 -4.58913637 3.60575001 0 0 Z " fill="#CDCDCD" transform="translate(204,400)"/>
<path d="M0 0 C0.99 0.33 1.98 0.66 3 1 C3.875 2.875 3.875 2.875 4 5 C2.5625 6.75 2.5625 6.75 1 8 C-0.32 6.35 -1.64 4.7 -3 3 C-2.01 2.01 -1.02 1.02 0 0 Z " fill="#F5F5F5" transform="translate(204,656)"/>
<path d="M0 0 C0 4 0 4 -2 8 C-3.32 5.36 -4.64 2.72 -6 0 C-3.50907189 -1.24546405 -2.58919267 -0.7767578 0 0 Z " fill="#191919" transform="translate(327,336)"/>
<path d="M0 0 C2.00720923 0.28674418 4.0085944 0.61866701 6 1 C6.33 2.98 6.66 4.96 7 7 C4 7 4 7 2.61328125 5.6875 C1.40885417 4.125 0.20442708 2.5625 -1 1 C-0.67 0.67 -0.34 0.34 0 0 Z " fill="#EDEDED" transform="translate(185,778)"/>
<path d="M0 0 C1.98 0.66 3.96 1.32 6 2 C6 2.99 6 3.98 6 5 C4.02 5.33 2.04 5.66 0 6 C-0.99 4.68 -1.98 3.36 -3 2 C-2.01 2 -1.02 2 0 2 C0 1.34 0 0.68 0 0 Z " fill="#0A0A0A" transform="translate(491,480)"/>
<path d="M0 0 C0.6875 1.75 0.6875 1.75 1 4 C-0.3125 6.25 -0.3125 6.25 -2 8 C-2.66 8 -3.32 8 -4 8 C-5.62514468 9.45833358 -5.62514468 9.45833358 -7 11 C-7.66 10.67 -8.32 10.34 -9 10 C-7.38405168 7.95880212 -5.7143618 5.95927063 -4 4 C-3.34 4 -2.68 4 -2 4 C-1.34 2.68 -0.68 1.36 0 0 Z " fill="#DEDEDE" transform="translate(185,419)"/>
<path d="M0 0 C0.66 0.99 1.32 1.98 2 3 C1.34 3 0.68 3 0 3 C-0.04125 3.556875 -0.0825 4.11375 -0.125 4.6875 C-1.46930374 8.24030274 -4.00974189 9.70958953 -7 12 C-7.66 11.67 -8.32 11.34 -9 11 C-6.03 7.37 -3.06 3.74 0 0 Z " fill="#262626" transform="translate(306,627)"/>
<path d="M0 0 C0.66 0.99 1.32 1.98 2 3 C1.34 3 0.68 3 0 3 C0.33 3.99 0.66 4.98 1 6 C0.67 6.66 0.34 7.32 0 8 C-0.66 8 -1.32 8 -2 8 C-2.33 8.66 -2.66 9.32 -3 10 C-3.99 10.33 -4.98 10.66 -6 11 C-4.54955729 6.89041233 -2.48889248 3.56741255 0 0 Z " fill="#1B1B1B" transform="translate(162,431)"/>
<path d="M0 0 C1.65 0 3.3 0 5 0 C5.33 0.66 5.66 1.32 6 2 C4.35 4.31 2.7 6.62 1 9 C-1 6 -1 6 -0.625 3.9375 C-0.41875 3.298125 -0.2125 2.65875 0 2 C0 1.34 0 0.68 0 0 Z " fill="#0F0F0F" transform="translate(171,306)"/>
<path d="M0 0 C3.93846154 3.32307692 3.93846154 3.32307692 4.25 6.75 C4.1675 7.4925 4.085 8.235 4 9 C3.67 8.34 3.34 7.68 3 7 C2.01 7.33 1.02 7.66 0 8 C-0.98120464 4.94736336 -0.98120464 3.05263664 0 0 Z " fill="#DBDBDB" transform="translate(173,647)"/>
<path d="M0 0 C0.66 1.32 1.32 2.64 2 4 C-0.37902903 7.56854354 -2.54563194 9.46209694 -6 12 C-6.99 11.67 -7.98 11.34 -9 11 C-8.071875 10.29875 -7.14375 9.5975 -6.1875 8.875 C-3.09904705 6.32684378 -1.55573813 3.71648553 0 0 Z " fill="#1C1C1C" transform="translate(589,423)"/>
<path d="M0 0 C0.66 0.33 1.32 0.66 2 1 C0.68 2.65 -0.64 4.3 -2 6 C-1.34 6.33 -0.68 6.66 0 7 C-0.33 7.99 -0.66 8.98 -1 10 C-1.99 9.67 -2.98 9.34 -4 9 C-4.25 6.75 -4.25 6.75 -4 4 C-2 1.6875 -2 1.6875 0 0 Z " fill="#F2F2F2" transform="translate(190,414)"/>
<path d="M0 0 C0 3 0 3 -1 6 C-1.66 6.66 -2.32 7.32 -3 8 C-3.66 8 -4.32 8 -5 8 C-6.34882408 8.63474075 -7.6846659 9.29848848 -9 10 C-8.06409496 8.8944811 -7.12620142 7.79064547 -6.1875 6.6875 C-5.66542969 6.07261719 -5.14335937 5.45773437 -4.60546875 4.82421875 C-3.12827531 3.14575321 -1.59960869 1.56117966 0 0 Z " fill="#252525" transform="translate(284,652)"/>
<path d="M0 0 C0.66 0.33 1.32 0.66 2 1 C-0.23407889 4.35111834 -1.26215824 5.81553956 -5.25 6.8125 C-6.61125 6.9053125 -6.61125 6.9053125 -8 7 C-5.42215154 4.35247996 -3.08351902 2.05567935 0 0 Z " fill="#1B1B1B" transform="translate(617,625)"/>
<path d="M0 0 C3.26954202 0.56371414 4.82575883 1.49962266 7 4 C6.34 4 5.68 4 5 4 C5 4.66 5 5.32 5 6 C2.00667261 5.0022242 1.05233685 4.2477975 -1 2 C-0.67 1.34 -0.34 0.68 0 0 Z " fill="#121212" transform="translate(239,437)"/>
<path d="M0 0 C2.66735273 2.48952921 4.55746343 4.63408134 6 8 C3 8 3 8 0.75 6.25 C-1 4 -1 4 -0.75 1.75 C-0.5025 1.1725 -0.255 0.595 0 0 Z " fill="#202020" transform="translate(277,471)"/>
<path d="M0 0 C4.875 4.625 4.875 4.625 6 8 C3.03 7.505 3.03 7.505 0 7 C0 4.69 0 2.38 0 0 Z " fill="#1C1C1C" transform="translate(799,378)"/>
<path d="M0 0 C0.66 0.33 1.32 0.66 2 1 C2 3 2 3 -0.25 5.5 C-2.57074273 7.60976612 -4.22537933 8.71940585 -7 10 C-6.02223933 8.51990357 -5.0427506 7.04094856 -4.0625 5.5625 C-3.51722656 4.73878906 -2.97195313 3.91507813 -2.41015625 3.06640625 C-1 1 -1 1 0 0 Z " fill="#232323" transform="translate(313,755)"/>
<path d="M0 0 C1.75 1.4375 1.75 1.4375 3 3 C2.01 4.32 1.02 5.64 0 7 C-1.32 5.02 -2.64 3.04 -4 1 C-2.1875 0.3125 -2.1875 0.3125 0 0 Z " fill="#171717" transform="translate(860,680)"/>
<path d="M0 0 C1.65 1.65 3.3 3.3 5 5 C4.67 5.66 4.34 6.32 4 7 C2.66666667 7 1.33333333 7 0 7 C0 4.69 0 2.38 0 0 Z " fill="#1E1E1E" transform="translate(474,646)"/>
<path d="M0 0 C1.32 1.32 2.64 2.64 4 4 C3.01 5.485 3.01 5.485 2 7 C1.01 7 0.02 7 -1 7 C-2 4 -2 4 -1.0625 1.8125 C-0.5365625 0.9153125 -0.5365625 0.9153125 0 0 Z " fill="#171717" transform="translate(180,638)"/>
<path d="M0 0 C0.99 0.99 1.98 1.98 3 3 C2.67 3.99 2.34 4.98 2 6 C1.01 6.33 0.02 6.66 -1 7 C-1.66 5.68 -2.32 4.36 -3 3 C-2.01 2.01 -1.02 1.02 0 0 Z " fill="#101010" transform="translate(509,375)"/>
<path d="M0 0 C0.33 0.66 0.66 1.32 1 2 C1.66 2.33 2.32 2.66 3 3 C1.68 4.65 0.36 6.3 -1 8 C-1.99 7.67 -2.98 7.34 -4 7 C-2.79266543 4.58533087 -1.39745961 2.30884631 0 0 Z " fill="#EFEFEF" transform="translate(681,692)"/>
<path d="M0 0 C0.66 0.33 1.32 0.66 2 1 C0.38405168 3.04119788 -1.2856382 5.04072937 -3 7 C-3.66 7 -4.32 7 -5 7 C-5.33 7.99 -5.66 8.98 -6 10 C-6.99 9.34 -7.98 8.68 -9 8 C-8.43410156 7.50628906 -7.86820313 7.01257813 -7.28515625 6.50390625 C-6.55167969 5.86324219 -5.81820312 5.22257812 -5.0625 4.5625 C-4.33160156 3.92441406 -3.60070312 3.28632813 -2.84765625 2.62890625 C-1.87860647 1.77458541 -0.91348825 0.91348825 0 0 Z " fill="#DADADA" transform="translate(218,387)"/>
<path d="M0 0 C0.99 0.66 1.98 1.32 3 2 C3 2.66 3 3.32 3 4 C0.5 5.625 0.5 5.625 -2 7 C-2.66 5.68 -3.32 4.36 -4 3 C-2.68 2.01 -1.36 1.02 0 0 Z " fill="#0E0E0E" transform="translate(217,383)"/>
<path d="M0 0 C1.65 1.65 3.3 3.3 5 5 C4.67 5.66 4.34 6.32 4 7 C3.01 7 2.02 7 1 7 C-0.0625 4.625 -0.0625 4.625 -1 2 C-0.67 1.34 -0.34 0.68 0 0 Z " fill="#222222" transform="translate(481,656)"/>
<path d="M0 0 C0.33 1.32 0.66 2.64 1 4 C0.01 4.495 0.01 4.495 -1 5 C-0.67 5.66 -0.34 6.32 0 7 C-0.99 7.33 -1.98 7.66 -3 8 C-3.66 7.67 -4.32 7.34 -5 7 C-3.70700306 4.11562221 -2.34058637 2.12780579 0 0 Z " fill="#282828" transform="translate(213,336)"/>
<path d="M0 0 C-0.33 1.65 -0.66 3.3 -1 5 C-1.99 5 -2.98 5 -4 5 C-4.33 5.66 -4.66 6.32 -5 7 C-5 6.34 -5 5.68 -5 5 C-5.66 4.67 -6.32 4.34 -7 4 C-2.25 0 -2.25 0 0 0 Z " fill="#E3E3E3" transform="translate(232,257)"/>
<path d="M0 0 C0.66 0 1.32 0 2 0 C1.375 2.375 1.375 2.375 0 5 C-3.125 6.3125 -3.125 6.3125 -6 7 C-5.04882866 5.8274869 -4.08882991 4.66212985 -3.125 3.5 C-2.59132813 2.8503125 -2.05765625 2.200625 -1.5078125 1.53125 C-0.76144531 0.77328125 -0.76144531 0.77328125 0 0 Z " fill="#D5D5D5" transform="translate(662,685)"/>
<path d="M0 0 C1.98 0.66 3.96 1.32 6 2 C4.625 4 4.625 4 3 6 C2.34 6 1.68 6 1 6 C0.67 4.02 0.34 2.04 0 0 Z " fill="#E7E7E7" transform="translate(234,624)"/>
<path d="M0 0 C1.32 0.99 2.64 1.98 4 3 C3.34 4.32 2.68 5.64 2 7 C0.68 5.02 -0.64 3.04 -2 1 C-1.34 0.67 -0.68 0.34 0 0 Z " fill="#E9E9E9" transform="translate(171,760)"/>
<path d="M0 0 C0.99 0.33 1.98 0.66 3 1 C3.33 1.99 3.66 2.98 4 4 C3.34 4 2.68 4 2 4 C1.67 4.66 1.34 5.32 1 6 C0.01 4.68 -0.98 3.36 -2 2 C-1.34 1.34 -0.68 0.68 0 0 Z " fill="#F3F3F3" transform="translate(188,642)"/>
<path d="M0 0 C0.66 0.33 1.32 0.66 2 1 C1.34 4.63 0.68 8.26 0 12 C-0.74955438 9.0017825 -1.41070989 6.03063487 -2 3 C-1.34 3 -0.68 3 0 3 C0 2.01 0 1.02 0 0 Z " fill="#E1E1E1" transform="translate(851,641)"/>
<path d="M0 0 C0.66 0.99 1.32 1.98 2 3 C1.34 4.32 0.68 5.64 0 7 C-1.32 6.67 -2.64 6.34 -4 6 C-2.68 4.02 -1.36 2.04 0 0 Z " fill="#1C1C1C" transform="translate(314,616)"/>
<path d="M0 0 C1.32 0 2.64 0 4 0 C2.95125002 2.62187494 2.35068687 3.79371361 -0.125 5.25 C-0.74375 5.4975 -1.3625 5.745 -2 6 C-1.34 4.02 -0.68 2.04 0 0 Z " fill="#151515" transform="translate(245,498)"/>
<path d="M0 0 C0.66 0.33 1.32 0.66 2 1 C1.67 2.65 1.34 4.3 1 6 C0.01 5.67 -0.98 5.34 -2 5 C-4.14255793 5.38932856 -4.14255793 5.38932856 -6 6 C-4 4 -2 2 0 0 Z " fill="#262626" transform="translate(261,810)"/>
<path d="M0 0 C1.5625 1.125 1.5625 1.125 3 3 C2.6875 6.1875 2.6875 6.1875 2 9 C1.87625 8.360625 1.7525 7.72125 1.625 7.0625 C1.315625 6.0415625 1.315625 6.0415625 1 5 C0.34 4.67 -0.32 4.34 -1 4 C-0.67 2.68 -0.34 1.36 0 0 Z " fill="#E2E2E2" transform="translate(499,642)"/>
<path d="M0 0 C0.33 0.66 0.66 1.32 1 2 C-0.98 4.31 -2.96 6.62 -5 9 C-5.66 8.67 -6.32 8.34 -7 8 C-4.69 5.36 -2.38 2.72 0 0 Z " fill="#D8D8D8" transform="translate(309,641)"/>
<path d="M0 0 C1.32 0 2.64 0 4 0 C4 1.65 4 3.3 4 5 C2.0625 4.6875 2.0625 4.6875 0 4 C-0.33 3.01 -0.66 2.02 -1 1 C-0.67 0.67 -0.34 0.34 0 0 Z " fill="#0A0A0A" transform="translate(161,627)"/>
<path d="M0 0 C0.66 0.33 1.32 0.66 2 1 C0.08864614 4.53600465 -1.62642766 6.78972846 -5 9 C-3.7508258 5.54074837 -2.32472205 2.85306797 0 0 Z " fill="#D3D3D3" transform="translate(587,621)"/>
<path d="M0 0 C0.33 0.66 0.66 1.32 1 2 C0.0625 4.125 0.0625 4.125 -1 6 C-0.34 6 0.32 6 1 6 C0.67 6.66 0.34 7.32 0 8 C-0.99 8 -1.98 8 -3 8 C-2.25 2.25 -2.25 2.25 0 0 Z " fill="#E8E8E8" transform="translate(276,592)"/>
<path d="M0 0 C1.65 0 3.3 0 5 0 C5.33 0.99 5.66 1.98 6 3 C5.67 3.66 5.34 4.32 5 5 C3.0625 4.1875 3.0625 4.1875 1 3 C0.67 2.01 0.34 1.02 0 0 Z " fill="#0F0F0F" transform="translate(322,577)"/>
<path d="M0 0 C0.99 0.99 1.98 1.98 3 3 C1.68 3.99 0.36 4.98 -1 6 C-1.66 5.01 -2.32 4.02 -3 3 C-2.01 2.01 -1.02 1.02 0 0 Z " fill="#EEEEEE" transform="translate(284,530)"/>
<path d="M0 0 C0.66 1.32 1.32 2.64 2 4 C-0.375 5.5625 -0.375 5.5625 -3 7 C-3.66 6.67 -4.32 6.34 -5 6 C-3.35 4.02 -1.7 2.04 0 0 Z " fill="#262626" transform="translate(730,392)"/>
<path d="M0 0 C1.32 0.99 2.64 1.98 4 3 C4 3.66 4 4.32 4 5 C3.34 5 2.68 5 2 5 C2 6.65 2 8.3 2 10 C1.67 10 1.34 10 1 10 C0.67 6.7 0.34 3.4 0 0 Z " fill="#E3E3E3" transform="translate(300,390)"/>
<path d="M0 0 C0.66 0.66 1.32 1.32 2 2 C1.34 2 0.68 2 0 2 C-0.66 3.32 -1.32 4.64 -2 6 C-2.99 5.67 -3.98 5.34 -5 5 C-3.35 3.35 -1.7 1.7 0 0 Z " fill="#DBDBDB" transform="translate(253,752)"/>
<path d="M0 0 C0.99 0.33 1.98 0.66 3 1 C2.01 2.98 1.02 4.96 0 7 C-0.66 5.68 -1.32 4.36 -2 3 C-1.34 2.01 -0.68 1.02 0 0 Z " fill="#EBEBEB" transform="translate(316,745)"/>
<path d="M0 0 C1.32 0 2.64 0 4 0 C5.35439668 2.70879335 5.06501451 5.00933268 5 8 C2.98863724 5.44008376 1.37154504 2.95409701 0 0 Z " fill="#151515" transform="translate(173,646)"/>
<path d="M0 0 C0.66 0.33 1.32 0.66 2 1 C0.92598892 3.91517292 0.22189824 5.77810176 -2 8 C-1.125 1.125 -1.125 1.125 0 0 Z " fill="#141414" transform="translate(311,633)"/>
<path d="M0 0 C1.32 1.32 2.64 2.64 4 4 C3.34 4.66 2.68 5.32 2 6 C0.68 5.01 -0.64 4.02 -2 3 C-1 1 -1 1 0 0 Z " fill="#191919" transform="translate(270,463)"/>
<path d="M0 0 C0.66 0.33 1.32 0.66 2 1 C0.68 1.33 -0.64 1.66 -2 2 C-2.33 3.65 -2.66 5.3 -3 7 C-3.66 6.34 -4.32 5.68 -5 5 C-5 4.01 -5 3.02 -5 2 C-2.625 0.9375 -2.625 0.9375 0 0 Z " fill="#2C2C2C" transform="translate(721,400)"/>
</svg>
